<?xml version="1.0" encoding="UTF-8"?>
<svg id="Layer_2" data-name="Layer 2" xmlns="http://www.w3.org/2000/svg" viewBox="0 0 967.31 226.58">
  <defs>
    <style>
      .cls-1 {
        fill: #0f4a45;
      }

      .cls-2 {
        fill: #3e9c92;
      }
    </style>
  </defs>
  <g id="Layer_1-2" data-name="Layer 1">
    <g>
      <path class="cls-1" d="M890.17,192.96c-7.68,2.46-15.59,1.28-23.33.73l-1.75-70.26c-.35-14.14-15.6-21.52-28.21-19.71-12.18,1.74-22.81,11.82-23.01,25.81l-.92,63.88c-7.99,1.76-15.38,1.56-23.57.3l-.1-111.31c7.83-2.24,15.62-1.42,23.44-.58,1.33,3.01.86,5.49,1.9,9.21,20.23-17.01,49.49-16.53,66.5,5.34,10.87-12.57,24.68-17.85,40.52-17.28,25.21.91,44.4,19.7,45.13,45.33.67,23.46.69,46.18.13,69.53-8.75.43-15.89,1.12-23.85-.32l-.74-65.73c-.18-15.77-13.19-26.59-28.49-24.65-13.66,1.73-23.49,12.41-23.52,26.38l-.15,63.33Z"/>
      <path class="cls-1" d="M321.58,184.72c-28.07,22.15-80.27,14.43-96.8-22.12,5.29-6.73,12.74-11.51,21.1-14.86,5.46,12.1,14.07,20.66,23.79,23.58,13.51,4.05,26.39,2.84,36.43-5.16,6.6-5.26,9.09-13.46,7.81-21.15-4.47-26.89-54.72-16.38-75.38-41.79-11.06-13.6-12.5-31.72-4.84-48.32,6.31-13.67,20.98-23.05,37.87-25.67,26.36-4.1,52.72,6.35,64.27,31.53-4.2,6.91-11.12,11.14-19.24,13.14-10.08-19.75-33.15-27.55-52.48-17.17-7.86,4.22-11.34,12.77-10.52,20.61.87,8.32,6.65,15.17,15.4,17.59l35.09,9.71c17.12,4.74,29.99,17.04,33.5,32.32,4.26,18.54-1.3,36.18-15.99,47.77Z"/>
      <path class="cls-1" d="M741.09,82.7c8.01-2.33,15.65-1.47,24.05-.88l1.03,61.02c.53,31.14-22.09,53.87-53.02,53.89-28.23.02-51.1-19.86-50.98-48.85l.26-65.53c7.9-1.7,15.05-1.28,23.53-.37l.35,64.3c.09,15.75,11.05,27.08,27,27.15,15.01.06,27.64-10.47,27.67-25.83l.13-64.9Z"/>
      <path class="cls-1" d="M598.9,82.77l-45.45,110.29c-8.49,2.04-16.52,2.18-24.95.06l-46.85-110.19c9.96-2.66,17.23-1.47,25.9-.96l33.18,79.77,31.61-79.21c8.08-1.74,15.03-2.5,26.57.25Z"/>
      <rect class="cls-1" x="613.1" y="81.61" width="24.94" height="112.81"/>
      <circle class="cls-2" cx="625.63" cy="45.76" r="15"/>
      <path class="cls-1" d="M447.54,82.36c-2.93.87-1.41,6.49-3.23,8.97-24.46-18.77-60.94-14.97-79.48,10.58-14.15,19.51-16.06,46.39-4,67.32,17.04,29.54,56.18,35.73,83.53,15.59,1.67,2.42.35,7.12,2.66,8.86,7.42.89,15.14,2.02,22.66-.71l.05-110.46c-7.65-1.75-15.14-1.88-22.19-.15ZM411.38,172.74c-19.14,0-34.65-15.51-34.65-34.65s15.51-34.67,34.65-34.67,34.67,15.51,34.67,34.67-15.51,34.65-34.67,34.65Z"/>
      <path class="cls-1" d="M.84,143.45l46.84-45.75c2.71-2.64,6.84-1.44,9.22.84l39.55,37.77c3,2.87,7.14,2.66,10.07-.22l48.19-47.45c1.67-1.65,4.37-1.06,6.08-.7,2.11.44,2.51,3.18,2.68,6.16l-.31,80.41c-26.69,18.41-53.29,35.25-81.66,52.09L1.46,175.55c-1.99-10.73-1.38-21.16-.63-32.1Z"/>
      <path class="cls-2" d="M98.03,101.89c-13.16-12.31-25.7-23.26-37.69-35.66-3.91-4.04-9.59-7.52-14.67-2.69L6.27,101.03c-1.42,1.35-3.31,1.92-4.71.82C.73,101.21,0,99.71,0,97.49L.14.08l162.09-.08.66,43.22-56.17,56.08c-1.49,1.48-5.61,5.48-8.69,2.6Z"/>
    </g>
  </g>
</svg>